<svg width="8" height="12" viewBox="0 0 8 12" fill="none" xmlns="http://www.w3.org/2000/svg">
<path d="M7.47434 6.71997C7.61503 6.57946 7.69416 6.38882 7.69434 6.18997V5.80997C7.69203 5.61156 7.61322 5.4217 7.47434 5.27997L2.33434 0.149974C2.24045 0.055318 2.11265 0.0020752 1.97934 0.0020752C1.84602 0.0020752 1.71822 0.055318 1.62434 0.149974L0.914336 0.859974C0.820271 0.952138 0.767264 1.07828 0.767264 1.20997C0.767264 1.34166 0.820271 1.46781 0.914336 1.55997L5.36434 5.99997L0.914336 10.44C0.819679 10.5339 0.766437 10.6617 0.766437 10.795C0.766437 10.9283 0.819679 11.0561 0.914336 11.15L1.62434 11.85C1.71822 11.9446 1.84602 11.9979 1.97934 11.9979C2.11265 11.9979 2.24045 11.9446 2.33434 11.85L7.47434 6.71997Z" fill="#0F2B3D"/>
</svg>
