<svg width="8" height="12" viewBox="0 0 8 12" fill="none" xmlns="http://www.w3.org/2000/svg">
<path d="M0.914336 6.71997C0.773643 6.57946 0.694511 6.38882 0.694336 6.18997V5.80997C0.69664 5.61156 0.775452 5.4217 0.914336 5.27997L6.05434 0.149974C6.14822 0.055318 6.27602 0.0020752 6.40934 0.0020752C6.54265 0.0020752 6.67045 0.055318 6.76434 0.149974L7.47434 0.859974C7.5684 0.952138 7.62141 1.07828 7.62141 1.20997C7.62141 1.34166 7.5684 1.46781 7.47434 1.55997L3.02434 5.99997L7.47434 10.44C7.56899 10.5339 7.62224 10.6617 7.62224 10.795C7.62224 10.9283 7.56899 11.0561 7.47434 11.15L6.76434 11.85C6.67045 11.9446 6.54265 11.9979 6.40934 11.9979C6.27602 11.9979 6.14822 11.9446 6.05434 11.85L0.914336 6.71997Z" fill="#BCBCBC"/>
</svg>
